<svg width="759" height="637" viewBox="0 0 759 637" fill="none" xmlns="http://www.w3.org/2000/svg">
<path fill-rule="evenodd" clip-rule="evenodd" d="M325.368 20.0812C356.49 -6.69375 402.51 -6.69375 433.632 20.0812L565.5 133.532V45.509C565.5 25.6269 581.618 9.50897 601.5 9.50897H646.5C666.382 9.50897 682.5 25.6269 682.5 45.509V234.193L730.132 275.173C748.459 290.94 759 313.915 759 338.091V554.009C759 599.849 721.84 637.009 676 637.009H83C37.1604 637.009 0 599.849 0 554.009V338.091C0.000135534 313.915 10.5414 290.94 28.8682 275.173L325.368 20.0812ZM274.072 271.491C273.474 269.649 270.867 269.649 270.269 271.491L234.302 382.185C234.034 383.009 233.266 383.568 232.399 383.568H116.009C114.071 383.568 113.266 386.046 114.833 387.185L208.995 455.598C209.696 456.107 209.989 457.01 209.722 457.834L173.755 568.529C173.157 570.371 175.266 571.903 176.833 570.764L270.995 502.352C271.696 501.843 272.645 501.842 273.346 502.352L367.508 570.764C369.075 571.903 371.184 570.371 370.586 568.529L334.619 457.834C334.351 457.01 334.645 456.107 335.346 455.598L429.508 387.185C431.075 386.046 430.269 383.568 428.332 383.568H311.941C311.075 383.568 310.307 383.009 310.039 382.185L274.072 271.491ZM518.072 362.342C517.474 360.5 514.867 360.5 514.269 362.342L500.155 405.776C499.888 406.599 499.12 407.157 498.254 407.157H452.585C450.648 407.157 449.842 409.637 451.409 410.776L488.356 437.619C489.057 438.129 489.35 439.031 489.083 439.855L474.97 483.288C474.371 485.131 476.48 486.663 478.048 485.525L514.995 458.681C515.696 458.172 516.645 458.172 517.346 458.681L554.293 485.525C555.86 486.663 557.969 485.131 557.37 483.288L543.258 439.855C542.99 439.031 543.284 438.129 543.984 437.619L580.932 410.776C582.499 409.637 581.693 407.158 579.756 407.157H534.087C533.22 407.157 532.452 406.6 532.185 405.776L518.072 362.342ZM445.392 166.363C444.793 164.521 442.186 164.521 441.587 166.363L421.938 226.836C421.671 227.66 420.903 228.218 420.036 228.218H356.451C354.514 228.218 353.708 230.697 355.275 231.836L406.717 269.21C407.418 269.719 407.711 270.622 407.443 271.446L387.795 331.919C387.196 333.762 389.305 335.294 390.872 334.155L442.313 296.781C443.014 296.272 443.964 296.272 444.665 296.781L496.106 334.155C497.674 335.294 499.782 333.762 499.184 331.919L479.535 271.446C479.267 270.622 479.561 269.719 480.262 269.21L531.703 231.836C533.27 230.697 532.465 228.218 530.527 228.218H466.942C466.076 228.218 465.308 227.66 465.04 226.836L445.392 166.363Z" fill="#FF204D"/>
</svg>
